<?xml version="1.0" encoding="UTF-8" standalone="no"?>
<!-- Created with Inkscape (http://www.inkscape.org/) -->

<svg
   xmlns:dc="http://purl.org/dc/elements/1.1/"
   xmlns:cc="http://creativecommons.org/ns#"
   xmlns:rdf="http://www.w3.org/1999/02/22-rdf-syntax-ns#"
   xmlns:svg="http://www.w3.org/2000/svg"
   xmlns="http://www.w3.org/2000/svg"
   xmlns:sodipodi="http://sodipodi.sourceforge.net/DTD/sodipodi-0.dtd"
   xmlns:inkscape="http://www.inkscape.org/namespaces/inkscape"
   width="6.2770777mm"
   height="2.3694181mm"
   viewBox="0 0 6.2770777 2.3694181"
   version="1.1"
   id="svg902"
   inkscape:version="0.92.2 2405546, 2018-03-11"
   sodipodi:docname="logo.svg"
   inkscape:export-filename="/home/phnxrbrn/Projects/o2tk/assets/logo.png"
   inkscape:export-xdpi="407.35739"
   inkscape:export-ydpi="407.35739">
  <defs
     id="defs896" />
  <sodipodi:namedview
     id="base"
     pagecolor="#ffffff"
     bordercolor="#666666"
     borderopacity="1.0"
     inkscape:pageopacity="0.0"
     inkscape:pageshadow="2"
     inkscape:zoom="11.2"
     inkscape:cx="-4.0355728"
     inkscape:cy="-10.164946"
     inkscape:document-units="mm"
     inkscape:current-layer="layer1"
     showgrid="false"
     fit-margin-top="0"
     fit-margin-left="0"
     fit-margin-right="0"
     fit-margin-bottom="0"
     inkscape:window-width="1920"
     inkscape:window-height="1012"
     inkscape:window-x="0"
     inkscape:window-y="34"
     inkscape:window-maximized="1" />
  <metadata
     id="metadata899">
    <rdf:RDF>
      <cc:Work
         rdf:about="">
        <dc:format>image/svg+xml</dc:format>
        <dc:type
           rdf:resource="http://purl.org/dc/dcmitype/StillImage" />
        <dc:title></dc:title>
      </cc:Work>
    </rdf:RDF>
  </metadata>
  <g
     inkscape:label="Layer 1"
     inkscape:groupmode="layer"
     id="layer1"
     transform="translate(45.471872,-93.976006)">
    <g
       transform="matrix(0.99503127,0,0,0.99503127,-49.646561,-198.40246)"
       id="g1075">
      <path
         transform="translate(0,-0.70352106)"
         style="fill:#808080;stroke-width:0.29384616"
         d="M 8.0955467,295.8647 H 6.6050273 a 1.2263437,1.2263437 0 0 1 -0.017138,0.11166 1.2263437,1.2263437 0 0 1 -0.030122,0.11841 1.2263437,1.2263437 0 0 1 -0.012464,0.0348 H 8.154753 a 1.2263438,1.2263438 0 0 1 -0.022851,-0.0691 1.2263438,1.2263438 0 0 1 -0.027006,-0.11945 1.2263438,1.2263438 0 0 1 -0.00935,-0.0763 z"
         id="path1064"
         inkscape:connector-curvature="0" />
      <path
         transform="translate(0,-0.70352106)"
         style="fill:#808080;stroke-width:0.29384616"
         d="M 8.1542329,295.33549 H 6.5447832 a 1.2263437,1.2263437 0 0 1 0.022851,0.0691 1.2263437,1.2263437 0 0 1 0.027006,0.11945 1.2263437,1.2263437 0 0 1 0.00935,0.0763 h 1.4905194 a 1.2263438,1.2263438 0 0 1 0.017138,-0.11114 1.2263438,1.2263438 0 0 1 0.030122,-0.11893 1.2263438,1.2263438 0 0 1 0.012464,-0.0348 z"
         id="path1067"
         inkscape:connector-curvature="0" />
      <path
         style="fill:#ff0000;stroke-width:0.18330872"
         d="m 6.5767853,295.02909 a 1.190625,1.190625 0 0 1 -1.1906249,1.19063 1.190625,1.190625 0 0 1 -1.190625,-1.19063 1.190625,1.190625 0 0 1 1.190625,-1.19062 1.190625,1.190625 0 0 1 1.1906249,1.19062 z"
         id="path3728-0"
         inkscape:connector-curvature="0" />
      <path
         style="fill:#ff0000;stroke-width:0.18330872"
         d="m 10.503958,295.02909 a 1.190625,1.190625 0 0 1 -1.1906245,1.19063 1.190625,1.190625 0 0 1 -1.1906249,-1.19063 1.190625,1.190625 0 0 1 1.1906249,-1.19062 1.190625,1.190625 0 0 1 1.1906245,1.19062 z"
         id="path3728-3-6"
         inkscape:connector-curvature="0" />
    </g>
  </g>
</svg>
